<svg xmlns="http://www.w3.org/2000/svg" xmlns:xlink="http://www.w3.org/1999/xlink" width="500" zoomAndPan="magnify" viewBox="0 0 375 374.999991" height="500" preserveAspectRatio="xMidYMid meet" version="1.0"><defs><g/><clipPath id="1261ce754d"><path d="M 70.425781 70.351562 L 304.425781 70.351562 L 304.425781 304.351562 L 70.425781 304.351562 Z M 70.425781 70.351562 " clip-rule="nonzero"/></clipPath><clipPath id="481ca0ea5a"><path d="M 156 112.910156 L 188 112.910156 L 188 190.910156 L 156 190.910156 Z M 156 112.910156 " clip-rule="nonzero"/></clipPath><clipPath id="559194896a"><path d="M 149 123 L 188 123 L 188 190.910156 L 149 190.910156 Z M 149 123 " clip-rule="nonzero"/></clipPath><clipPath id="5e8b22d26f"><path d="M 141.714844 131 L 188 131 L 188 190.910156 L 141.714844 190.910156 Z M 141.714844 131 " clip-rule="nonzero"/></clipPath><clipPath id="d02ca3793d"><path d="M 187 112.910156 L 219 112.910156 L 219 190.910156 L 187 190.910156 Z M 187 112.910156 " clip-rule="nonzero"/></clipPath><clipPath id="2940f1d534"><path d="M 187 123 L 226 123 L 226 190.910156 L 187 190.910156 Z M 187 123 " clip-rule="nonzero"/></clipPath><clipPath id="0190314fbc"><path d="M 187 131 L 233.214844 131 L 233.214844 190.910156 L 187 190.910156 Z M 187 131 " clip-rule="nonzero"/></clipPath><clipPath id="b59335a0d5"><path d="M 73 205.675781 L 303 205.675781 L 303 266 L 73 266 Z M 73 205.675781 " clip-rule="nonzero"/></clipPath><clipPath id="7722d21784"><path d="M 266 247 L 352.285156 247 L 352.285156 306 L 266 306 Z M 266 247 " clip-rule="nonzero"/></clipPath><clipPath id="3642c24302"><path d="M 23.035156 247 L 109 247 L 109 306 L 23.035156 306 Z M 23.035156 247 " clip-rule="nonzero"/></clipPath><clipPath id="4eb08e3748"><path d="M 134.699219 260.609375 L 148.199219 260.609375 L 148.199219 273.359375 L 134.699219 273.359375 Z M 134.699219 260.609375 " clip-rule="nonzero"/></clipPath><clipPath id="cb63259ca4"><path d="M 226.480469 260.609375 L 239.980469 260.609375 L 239.980469 273.359375 L 226.480469 273.359375 Z M 226.480469 260.609375 " clip-rule="nonzero"/></clipPath></defs><rect x="-37.5" width="450" fill="#ffffff" y="-37.499999" height="449.999989" fill-opacity="1"/><rect x="-37.5" width="450" fill="#ffffff" y="-37.499999" height="449.999989" fill-opacity="1"/><rect x="-37.5" width="450" fill="#004aad" y="-37.499999" height="449.999989" fill-opacity="1"/><g clip-path="url(#1261ce754d)"><path fill="#f4bc33" d="M 187.140625 75.660156 L 208.816406 98.613281 L 210.367188 100.257812 L 212.523438 99.617188 L 243.027344 90.496094 L 250.328125 121.203125 L 250.835938 123.394531 L 253.027344 123.902344 L 284.007812 131.257812 L 274.976562 161.507812 L 274.339844 163.660156 L 275.980469 165.210938 L 299.132812 187.070312 L 276.179688 208.746094 L 274.539062 210.296875 L 275.175781 212.449219 L 284.300781 242.957031 L 253.59375 250.253906 L 251.402344 250.765625 L 250.890625 252.953125 L 243.539062 283.9375 L 213.289062 274.902344 L 211.136719 274.265625 L 209.585938 275.90625 L 187.726562 299.0625 L 166.050781 276.109375 L 164.5 274.464844 L 162.347656 275.105469 L 131.839844 284.226562 L 124.542969 253.519531 L 124.03125 251.332031 L 121.839844 250.820312 L 90.859375 243.46875 L 99.890625 213.214844 L 100.53125 211.0625 L 98.886719 209.511719 L 75.734375 187.617188 L 98.6875 165.941406 L 100.328125 164.390625 L 99.691406 162.238281 L 90.566406 131.730469 L 121.277344 124.433594 L 123.464844 123.921875 L 123.976562 121.730469 L 131.328125 90.75 L 161.578125 99.78125 L 163.734375 100.421875 L 165.285156 98.777344 L 187.140625 75.660156 M 187.140625 70.351562 L 162.636719 96.316406 L 128.683594 86.171875 L 120.4375 120.894531 L 85.96875 129.085938 L 96.1875 163.296875 L 70.425781 187.617188 L 96.386719 212.121094 L 86.242188 246.074219 L 120.984375 254.324219 L 129.175781 288.789062 L 163.386719 278.570312 L 187.707031 304.335938 L 212.210938 278.371094 L 246.167969 288.515625 L 254.414062 253.777344 L 288.878906 245.582031 L 278.664062 211.371094 L 304.425781 187.050781 L 278.460938 162.546875 L 288.605469 128.59375 L 253.867188 120.34375 L 245.675781 85.898438 L 211.464844 96.117188 Z M 187.140625 70.351562 " fill-opacity="1" fill-rule="nonzero"/></g><g clip-path="url(#481ca0ea5a)"><path fill="#f4bc33" d="M 187.460938 131.367188 C 187.460938 131.367188 174.714844 114.988281 156.425781 112.910156 L 156.425781 170.78125 C 156.425781 170.78125 182.886719 177.308594 187.460938 190.910156 Z M 187.460938 131.367188 " fill-opacity="1" fill-rule="nonzero"/></g><g clip-path="url(#559194896a)"><path fill="#f4bc33" d="M 153.519531 123.320312 L 149.503906 123.320312 L 149.503906 178.554688 C 149.503906 178.554688 179.285156 182.855469 187.460938 190.910156 C 187.460938 190.910156 178.734375 181.195312 153.65625 176.476562 Z M 153.519531 123.320312 " fill-opacity="1" fill-rule="nonzero"/></g><g clip-path="url(#5e8b22d26f)"><path fill="#f4bc33" d="M 145.074219 131.09375 L 145.074219 182.449219 C 145.074219 182.449219 178.878906 184.945312 187.46875 190.917969 C 187.46875 190.917969 154.222656 183.933594 141.753906 184.859375 L 141.753906 131.09375 Z M 145.074219 131.09375 " fill-opacity="1" fill-rule="nonzero"/></g><g clip-path="url(#d02ca3793d)"><path fill="#f4bc33" d="M 187.460938 131.367188 C 187.460938 131.367188 200.207031 114.988281 218.496094 112.910156 L 218.496094 170.78125 C 218.496094 170.78125 192.035156 177.308594 187.460938 190.910156 Z M 187.460938 131.367188 " fill-opacity="1" fill-rule="nonzero"/></g><g clip-path="url(#2940f1d534)"><path fill="#f4bc33" d="M 221.402344 123.320312 L 225.417969 123.320312 L 225.417969 178.554688 C 225.417969 178.554688 195.632812 182.855469 187.460938 190.910156 C 187.460938 190.910156 196.183594 181.195312 221.265625 176.476562 Z M 221.402344 123.320312 " fill-opacity="1" fill-rule="nonzero"/></g><g clip-path="url(#0190314fbc)"><path fill="#f4bc33" d="M 229.855469 131.09375 L 229.855469 182.449219 C 229.855469 182.449219 196.050781 184.945312 187.460938 190.917969 C 187.460938 190.917969 220.707031 183.933594 233.175781 184.859375 L 233.175781 131.09375 Z M 229.855469 131.09375 " fill-opacity="1" fill-rule="nonzero"/></g><g clip-path="url(#b59335a0d5)"><path fill="#ffffff" d="M 97.617188 262.53125 L 98.851562 262.132812 C 101.914062 261.160156 104.921875 260.253906 107.792969 259.4375 L 108.464844 259.25 L 108.953125 260.148438 L 108.808594 259.148438 L 110.558594 258.664062 L 110.5625 258.675781 C 135.539062 251.871094 161.457031 248.417969 187.609375 248.417969 C 213.707031 248.417969 239.574219 251.855469 264.503906 258.636719 L 264.503906 258.632812 L 267.425781 259.441406 C 270.339844 260.269531 273.359375 261.175781 276.394531 262.140625 L 277.578125 262.523438 C 280.617188 263.507812 283.164062 264.363281 285.503906 265.191406 L 302.160156 225.402344 C 265.496094 212.363281 226.957031 205.753906 187.605469 205.753906 C 148.257812 205.753906 109.722656 212.363281 73.054688 225.402344 L 89.714844 265.191406 C 92.085938 264.351562 94.675781 263.480469 97.617188 262.53125 " fill-opacity="1" fill-rule="nonzero"/></g><path fill="#ffffff" d="M 274.933594 265.910156 L 274.660156 265.820312 C 272.175781 265.035156 269.683594 264.289062 267.179688 263.574219 L 263.816406 274.03125 C 269.191406 271.746094 274.730469 269.621094 280.34375 267.691406 C 278.542969 267.078125 276.742188 266.480469 274.933594 265.910156 " fill-opacity="1" fill-rule="nonzero"/><g clip-path="url(#7722d21784)"><path fill="#ffffff" d="M 287.746094 270.296875 L 286.59375 269.878906 C 279.855469 272.039062 273.105469 274.535156 266.476562 277.316406 C 289.023438 284.105469 310.375 293.734375 330.027344 305.980469 C 328.011719 297.507812 325.460938 289.003906 322.425781 280.664062 L 321.597656 278.398438 L 323.980469 277.984375 C 333.207031 276.378906 342.691406 275.246094 352.21875 274.609375 C 334.984375 263.914062 316.492188 254.890625 297.1875 247.753906 L 287.746094 270.296875 " fill-opacity="1" fill-rule="nonzero"/></g><g clip-path="url(#3642c24302)"><path fill="#ffffff" d="M 53.617188 278.398438 L 52.789062 280.664062 C 49.761719 288.992188 47.210938 297.496094 45.191406 305.980469 C 64.84375 293.734375 86.195312 284.105469 108.742188 277.316406 C 102.113281 274.535156 95.355469 272.035156 88.625 269.878906 L 87.46875 270.296875 L 78.03125 247.753906 C 58.71875 254.894531 40.226562 263.914062 23 274.609375 C 32.53125 275.246094 42.011719 276.378906 51.234375 277.984375 L 53.617188 278.398438 " fill-opacity="1" fill-rule="nonzero"/></g><path fill="#ffffff" d="M 100.578125 265.816406 L 100.214844 265.933594 C 98.429688 266.496094 96.648438 267.089844 94.875 267.691406 C 100.480469 269.621094 106.019531 271.742188 111.402344 274.03125 L 108.039062 263.574219 C 105.480469 264.304688 103.023438 265.042969 100.578125 265.816406 " fill-opacity="1" fill-rule="nonzero"/><g clip-path="url(#4eb08e3748)"><path fill="#f4bc33" d="M 141.449219 260.609375 L 143.1875 264.492188 C 143.253906 264.640625 143.359375 264.769531 143.492188 264.867188 C 143.625 264.960938 143.78125 265.019531 143.945312 265.039062 L 148.199219 265.480469 L 145.019531 268.320312 C 144.894531 268.429688 144.804688 268.570312 144.753906 268.726562 C 144.703125 268.878906 144.695312 269.046875 144.730469 269.207031 L 145.621094 273.359375 L 141.917969 271.234375 C 141.773438 271.152344 141.613281 271.109375 141.449219 271.109375 C 141.285156 271.109375 141.125 271.152344 140.980469 271.234375 L 137.277344 273.359375 L 138.167969 269.207031 C 138.203125 269.046875 138.195312 268.878906 138.144531 268.726562 C 138.09375 268.570312 138 268.429688 137.878906 268.320312 L 134.699219 265.480469 L 138.953125 265.039062 C 139.117188 265.019531 139.273438 264.960938 139.40625 264.867188 C 139.539062 264.769531 139.644531 264.640625 139.710938 264.492188 Z M 141.449219 260.609375 " fill-opacity="1" fill-rule="evenodd"/></g><g clip-path="url(#cb63259ca4)"><path fill="#f4bc33" d="M 233.230469 260.609375 L 234.96875 264.492188 C 235.035156 264.640625 235.140625 264.769531 235.273438 264.867188 C 235.40625 264.960938 235.5625 265.019531 235.726562 265.039062 L 239.980469 265.480469 L 236.800781 268.320312 C 236.679688 268.429688 236.589844 268.570312 236.539062 268.726562 C 236.488281 268.878906 236.476562 269.046875 236.511719 269.207031 L 237.402344 273.359375 L 233.699219 271.234375 C 233.558594 271.152344 233.394531 271.109375 233.230469 271.109375 C 233.066406 271.109375 232.90625 271.152344 232.765625 271.234375 L 229.0625 273.359375 L 229.953125 269.207031 C 229.984375 269.046875 229.976562 268.878906 229.925781 268.726562 C 229.875 268.570312 229.785156 268.429688 229.664062 268.320312 L 226.484375 265.480469 L 230.738281 265.039062 C 230.898438 265.019531 231.054688 264.960938 231.1875 264.867188 C 231.320312 264.769531 231.425781 264.640625 231.492188 264.492188 Z M 233.230469 260.609375 " fill-opacity="1" fill-rule="evenodd"/></g><g fill="#004aad" fill-opacity="1"><g transform="translate(86.808598, 249.737504)"><g><path d="M 5.4375 -1.90625 C 4.550781 -1.582031 3.707031 -1.429688 2.90625 -1.453125 C 2.101562 -1.472656 1.390625 -1.679688 0.765625 -2.078125 C 0.148438 -2.484375 -0.3125 -3.066406 -0.625 -3.828125 L 2.46875 -5 C 2.675781 -4.570312 2.957031 -4.289062 3.3125 -4.15625 C 3.664062 -4.019531 4.050781 -4.03125 4.46875 -4.1875 C 4.894531 -4.351562 5.195312 -4.582031 5.375 -4.875 C 5.550781 -5.164062 5.570312 -5.484375 5.4375 -5.828125 C 5.320312 -6.128906 5.128906 -6.335938 4.859375 -6.453125 C 4.585938 -6.578125 4.28125 -6.644531 3.9375 -6.65625 C 3.601562 -6.675781 3.148438 -6.664062 2.578125 -6.625 C 1.703125 -6.570312 0.972656 -6.570312 0.390625 -6.625 C -0.179688 -6.6875 -0.726562 -6.882812 -1.25 -7.21875 C -1.78125 -7.5625 -2.179688 -8.101562 -2.453125 -8.84375 C -2.878906 -9.957031 -2.804688 -10.976562 -2.234375 -11.90625 C -1.660156 -12.84375 -0.726562 -13.554688 0.5625 -14.046875 C 1.875 -14.535156 3.050781 -14.613281 4.09375 -14.28125 C 5.144531 -13.957031 5.90625 -13.242188 6.375 -12.140625 L 3.234375 -10.953125 C 3.066406 -11.335938 2.8125 -11.585938 2.46875 -11.703125 C 2.125 -11.828125 1.742188 -11.8125 1.328125 -11.65625 C 0.984375 -11.519531 0.734375 -11.320312 0.578125 -11.0625 C 0.429688 -10.800781 0.425781 -10.492188 0.5625 -10.140625 C 0.707031 -9.753906 1.003906 -9.519531 1.453125 -9.4375 C 1.898438 -9.351562 2.5625 -9.332031 3.4375 -9.375 C 4.289062 -9.414062 5.003906 -9.40625 5.578125 -9.34375 C 6.148438 -9.289062 6.695312 -9.101562 7.21875 -8.78125 C 7.75 -8.457031 8.148438 -7.9375 8.421875 -7.21875 C 8.671875 -6.53125 8.722656 -5.84375 8.578125 -5.15625 C 8.441406 -4.46875 8.109375 -3.835938 7.578125 -3.265625 C 7.046875 -2.703125 6.332031 -2.25 5.4375 -1.90625 Z M 5.4375 -1.90625 "/></g></g></g><g fill="#004aad" fill-opacity="1"><g transform="translate(97.005365, 245.874631)"><g><path d="M -1.421875 -6.28125 C -1.804688 -7.476562 -1.890625 -8.628906 -1.671875 -9.734375 C -1.460938 -10.847656 -0.972656 -11.816406 -0.203125 -12.640625 C 0.554688 -13.460938 1.519531 -14.066406 2.6875 -14.453125 C 4.132812 -14.921875 5.492188 -14.941406 6.765625 -14.515625 C 8.035156 -14.085938 9.054688 -13.269531 9.828125 -12.0625 L 6.578125 -11.015625 C 6.179688 -11.429688 5.710938 -11.703125 5.171875 -11.828125 C 4.640625 -11.953125 4.09375 -11.921875 3.53125 -11.734375 C 2.625 -11.441406 1.988281 -10.882812 1.625 -10.0625 C 1.257812 -9.25 1.25 -8.3125 1.59375 -7.25 C 1.9375 -6.1875 2.492188 -5.429688 3.265625 -4.984375 C 4.046875 -4.535156 4.890625 -4.457031 5.796875 -4.75 C 6.359375 -4.9375 6.820312 -5.234375 7.1875 -5.640625 C 7.550781 -6.046875 7.769531 -6.539062 7.84375 -7.125 L 11.09375 -8.171875 C 11.175781 -6.765625 10.828125 -5.515625 10.046875 -4.421875 C 9.265625 -3.328125 8.148438 -2.546875 6.703125 -2.078125 C 5.535156 -1.691406 4.398438 -1.609375 3.296875 -1.828125 C 2.191406 -2.054688 1.226562 -2.554688 0.40625 -3.328125 C -0.414062 -4.097656 -1.023438 -5.082031 -1.421875 -6.28125 Z M -1.421875 -6.28125 "/></g></g></g><g fill="#004aad" fill-opacity="1"><g transform="translate(109.896275, 241.68983)"><g><path d="M 8.421875 -15.5 L 11.765625 -3.1875 L 8.765625 -2.375 L 7.390625 -7.4375 L 2.71875 -6.171875 L 4.09375 -1.109375 L 1.078125 -0.296875 L -2.265625 -12.609375 L 0.75 -13.421875 L 2.0625 -8.609375 L 6.734375 -9.875 L 5.421875 -14.6875 Z M 8.421875 -15.5 "/></g></g></g><g fill="#004aad" fill-opacity="1"><g transform="translate(122.422084, 238.266731)"><g><path d="M 7.03125 -1.40625 C 5.851562 -1.144531 4.71875 -1.179688 3.625 -1.515625 C 2.53125 -1.847656 1.585938 -2.4375 0.796875 -3.28125 C 0.00390625 -4.132812 -0.523438 -5.171875 -0.796875 -6.390625 C -1.066406 -7.617188 -1.019531 -8.78125 -0.65625 -9.875 C -0.289062 -10.96875 0.316406 -11.894531 1.171875 -12.65625 C 2.035156 -13.414062 3.054688 -13.925781 4.234375 -14.1875 C 5.410156 -14.445312 6.539062 -14.410156 7.625 -14.078125 C 8.71875 -13.742188 9.648438 -13.148438 10.421875 -12.296875 C 11.203125 -11.453125 11.726562 -10.414062 12 -9.1875 C 12.269531 -7.96875 12.226562 -6.8125 11.875 -5.71875 C 11.519531 -4.625 10.914062 -3.695312 10.0625 -2.9375 C 9.21875 -2.175781 8.207031 -1.664062 7.03125 -1.40625 Z M 6.421875 -4.171875 C 7.410156 -4.390625 8.128906 -4.894531 8.578125 -5.6875 C 9.035156 -6.488281 9.144531 -7.429688 8.90625 -8.515625 C 8.664062 -9.617188 8.171875 -10.429688 7.421875 -10.953125 C 6.679688 -11.484375 5.816406 -11.640625 4.828125 -11.421875 C 3.828125 -11.203125 3.097656 -10.703125 2.640625 -9.921875 C 2.179688 -9.140625 2.070312 -8.191406 2.3125 -7.078125 C 2.550781 -5.984375 3.046875 -5.171875 3.796875 -4.640625 C 4.546875 -4.109375 5.421875 -3.953125 6.421875 -4.171875 Z M 6.421875 -4.171875 "/></g></g></g><g fill="#004aad" fill-opacity="1"><g transform="translate(136.070446, 235.267514)"><g><path d="M 7.09375 -1.046875 C 5.894531 -0.847656 4.757812 -0.941406 3.6875 -1.328125 C 2.613281 -1.722656 1.703125 -2.363281 0.953125 -3.25 C 0.203125 -4.132812 -0.269531 -5.191406 -0.46875 -6.421875 C -0.675781 -7.660156 -0.566406 -8.816406 -0.140625 -9.890625 C 0.273438 -10.972656 0.925781 -11.867188 1.8125 -12.578125 C 2.707031 -13.296875 3.753906 -13.753906 4.953125 -13.953125 C 6.128906 -14.148438 7.257812 -14.050781 8.34375 -13.65625 C 9.425781 -13.269531 10.328125 -12.632812 11.046875 -11.75 C 11.773438 -10.863281 12.242188 -9.800781 12.453125 -8.5625 C 12.648438 -7.332031 12.546875 -6.175781 12.140625 -5.09375 C 11.742188 -4.019531 11.097656 -3.125 10.203125 -2.40625 C 9.304688 -1.695312 8.269531 -1.242188 7.09375 -1.046875 Z M 6.640625 -3.84375 C 7.628906 -4.007812 8.367188 -4.476562 8.859375 -5.25 C 9.359375 -6.019531 9.519531 -6.953125 9.34375 -8.046875 C 9.15625 -9.160156 8.703125 -10 7.984375 -10.5625 C 7.265625 -11.125 6.410156 -11.320312 5.421875 -11.15625 C 4.398438 -10.988281 3.640625 -10.523438 3.140625 -9.765625 C 2.648438 -9.015625 2.5 -8.078125 2.6875 -6.953125 C 2.863281 -5.847656 3.3125 -5.007812 4.03125 -4.4375 C 4.75 -3.875 5.617188 -3.675781 6.640625 -3.84375 Z M 6.640625 -3.84375 "/></g></g></g><g fill="#004aad" fill-opacity="1"><g transform="translate(149.924744, 233.021829)"><g><path d="M 3.90625 -2.90625 L 7.953125 -3.40625 L 8.25 -1.015625 L 1.109375 -0.140625 L -0.453125 -12.8125 L 2.640625 -13.1875 Z M 3.90625 -2.90625 "/></g></g></g><g fill="#004aad" fill-opacity="1"><g transform="translate(158.396235, 231.997889)"><g/></g></g><g fill="#004aad" fill-opacity="1"><g transform="translate(161.99125, 231.510589)"><g><path d="M 14.75 -13.734375 L 15.5625 -1 L 12.453125 -0.796875 L 11.96875 -8.4375 L 9.609375 -0.609375 L 7.09375 -0.453125 L 3.734375 -7.921875 L 4.21875 -0.265625 L 1.125 -0.078125 L 0.3125 -12.8125 L 3.96875 -13.046875 L 8.125 -4.4375 L 11.09375 -13.5 Z M 14.75 -13.734375 "/></g></g></g><g fill="#004aad" fill-opacity="1"><g transform="translate(178.317011, 230.500019)"><g><path d="M 9.0625 -2.34375 L 4.296875 -2.296875 L 3.546875 -0.03125 L 0.296875 0 L 4.78125 -12.8125 L 8.390625 -12.84375 L 13.125 -0.125 L 9.84375 -0.09375 Z M 8.234375 -4.734375 L 6.59375 -9.390625 L 5.078125 -4.703125 Z M 8.234375 -4.734375 "/></g></g></g><g fill="#004aad" fill-opacity="1"><g transform="translate(191.415795, 230.357982)"><g><path d="M 12.53125 0.484375 L 9.4375 0.359375 L 4.53125 -7.71875 L 4.234375 0.15625 L 1.125 0.046875 L 1.609375 -12.703125 L 4.71875 -12.59375 L 9.625 -4.5 L 9.921875 -12.390625 L 13.015625 -12.265625 Z M 12.53125 0.484375 "/></g></g></g><g fill="#004aad" fill-opacity="1"><g transform="translate(204.778233, 230.869248)"><g><path d="M 9.25 -1.4375 L 4.5 -1.859375 L 3.53125 0.3125 L 0.296875 0.03125 L 6 -12.296875 L 9.59375 -11.984375 L 13.078125 1.140625 L 9.8125 0.859375 Z M 8.65625 -3.921875 L 7.46875 -8.71875 L 5.515625 -4.1875 Z M 8.65625 -3.921875 "/></g></g></g><g fill="#004aad" fill-opacity="1"><g transform="translate(217.827341, 231.995241)"><g><path d="M 10.703125 -7.359375 C 10.523438 -7.796875 10.238281 -8.15625 9.84375 -8.4375 C 9.445312 -8.726562 8.960938 -8.910156 8.390625 -8.984375 C 7.390625 -9.128906 6.546875 -8.910156 5.859375 -8.328125 C 5.171875 -7.753906 4.753906 -6.921875 4.609375 -5.828125 C 4.441406 -4.660156 4.628906 -3.707031 5.171875 -2.96875 C 5.710938 -2.226562 6.535156 -1.78125 7.640625 -1.625 C 8.398438 -1.519531 9.066406 -1.625 9.640625 -1.9375 C 10.210938 -2.257812 10.671875 -2.757812 11.015625 -3.4375 L 7.109375 -3.984375 L 7.40625 -6.265625 L 14.109375 -5.34375 L 13.71875 -2.46875 C 13.375 -1.726562 12.882812 -1.0625 12.25 -0.46875 C 11.625 0.113281 10.863281 0.550781 9.96875 0.84375 C 9.070312 1.132812 8.09375 1.207031 7.03125 1.0625 C 5.78125 0.882812 4.703125 0.457031 3.796875 -0.21875 C 2.898438 -0.894531 2.242188 -1.757812 1.828125 -2.8125 C 1.410156 -3.863281 1.289062 -5.015625 1.46875 -6.265625 C 1.632812 -7.515625 2.054688 -8.585938 2.734375 -9.484375 C 3.421875 -10.390625 4.285156 -11.046875 5.328125 -11.453125 C 6.378906 -11.867188 7.53125 -11.988281 8.78125 -11.8125 C 10.289062 -11.613281 11.515625 -11.078125 12.453125 -10.203125 C 13.398438 -9.328125 13.953125 -8.222656 14.109375 -6.890625 Z M 10.703125 -7.359375 "/></g></g></g><g fill="#004aad" fill-opacity="1"><g transform="translate(231.287649, 233.874004)"><g><path d="M 6 -9.375 L 5.53125 -6.8125 L 9.625 -6.078125 L 9.203125 -3.734375 L 5.109375 -4.46875 L 4.609375 -1.6875 L 9.25 -0.84375 L 8.8125 1.59375 L 1.109375 0.203125 L 3.375 -12.359375 L 11.078125 -10.96875 L 10.640625 -8.53125 Z M 6 -9.375 "/></g></g></g><g fill="#004aad" fill-opacity="1"><g transform="translate(240.694531, 235.480685)"><g><path d="M 18.0625 -8.9375 L 15.203125 3.5 L 12.171875 2.796875 L 13.890625 -4.671875 L 9.375 2.15625 L 6.921875 1.59375 L 5.84375 -6.53125 L 4.125 0.953125 L 1.09375 0.25 L 3.953125 -12.1875 L 7.53125 -11.359375 L 9.046875 -1.953125 L 14.5 -9.765625 Z M 18.0625 -8.9375 "/></g></g></g><g fill="#004aad" fill-opacity="1"><g transform="translate(256.656417, 239.227244)"><g><path d="M 6.859375 -8.765625 L 6.15625 -6.265625 L 10.171875 -5.140625 L 9.53125 -2.828125 L 5.515625 -3.953125 L 4.75 -1.25 L 9.296875 0.03125 L 8.625 2.421875 L 1.078125 0.296875 L 4.53125 -12 L 12.078125 -9.875 L 11.40625 -7.484375 Z M 6.859375 -8.765625 "/></g></g></g><g fill="#004aad" fill-opacity="1"><g transform="translate(265.887965, 241.769019)"><g><path d="M 11.921875 3.890625 L 8.96875 2.9375 L 6.484375 -6.171875 L 4.03125 1.3125 L 1.0625 0.34375 L 5.03125 -11.796875 L 8 -10.828125 L 10.484375 -1.6875 L 12.9375 -9.203125 L 15.890625 -8.25 Z M 11.921875 3.890625 "/></g></g></g><g fill="#004aad" fill-opacity="1"><g transform="translate(278.618411, 245.95522)"><g><path d="M 14.140625 -8.328125 L 13.28125 -6 L 10.109375 -7.1875 L 6.484375 2.4375 L 3.5625 1.34375 L 7.1875 -8.28125 L 4.03125 -9.46875 L 4.890625 -11.796875 Z M 14.140625 -8.328125 "/></g></g></g><g fill="#004aad" fill-opacity="1"><g transform="translate(154.207089, 269.638191)"><g><path d="M 1.75 -7.84375 L 2.0625 -6 L 5.03125 -6.515625 L 5.328125 -4.796875 L 2.359375 -4.28125 L 2.703125 -2.28125 L 6.0625 -2.875 L 6.375 -1.109375 L 0.796875 -0.140625 L -0.78125 -9.234375 L 4.796875 -10.203125 L 5.109375 -8.4375 Z M 1.75 -7.84375 "/></g></g></g><g fill="#004aad" fill-opacity="1"><g transform="translate(161.035503, 268.44043)"><g><path d="M 4.140625 -0.4375 C 3.460938 -0.351562 2.84375 -0.382812 2.28125 -0.53125 C 1.726562 -0.6875 1.265625 -0.957031 0.890625 -1.34375 C 0.523438 -1.726562 0.289062 -2.222656 0.1875 -2.828125 L 2.5625 -3.125 C 2.632812 -2.789062 2.785156 -2.546875 3.015625 -2.390625 C 3.242188 -2.234375 3.519531 -2.175781 3.84375 -2.21875 C 4.175781 -2.257812 4.425781 -2.367188 4.59375 -2.546875 C 4.757812 -2.734375 4.828125 -2.960938 4.796875 -3.234375 C 4.765625 -3.453125 4.660156 -3.625 4.484375 -3.75 C 4.304688 -3.882812 4.101562 -3.984375 3.875 -4.046875 C 3.644531 -4.109375 3.316406 -4.175781 2.890625 -4.25 C 2.285156 -4.363281 1.78125 -4.484375 1.375 -4.609375 C 0.96875 -4.742188 0.609375 -4.972656 0.296875 -5.296875 C -0.015625 -5.617188 -0.207031 -6.066406 -0.28125 -6.640625 C -0.382812 -7.492188 -0.160156 -8.203125 0.390625 -8.765625 C 0.941406 -9.328125 1.710938 -9.675781 2.703125 -9.8125 C 3.703125 -9.9375 4.546875 -9.796875 5.234375 -9.390625 C 5.921875 -8.992188 6.335938 -8.363281 6.484375 -7.5 L 4.0625 -7.1875 C 4.019531 -7.476562 3.882812 -7.695312 3.65625 -7.84375 C 3.4375 -7.988281 3.171875 -8.039062 2.859375 -8 C 2.578125 -7.96875 2.363281 -7.863281 2.21875 -7.6875 C 2.070312 -7.519531 2.015625 -7.300781 2.046875 -7.03125 C 2.085938 -6.75 2.257812 -6.539062 2.5625 -6.40625 C 2.863281 -6.28125 3.328125 -6.160156 3.953125 -6.046875 C 4.566406 -5.921875 5.066406 -5.789062 5.453125 -5.65625 C 5.847656 -5.519531 6.203125 -5.296875 6.515625 -4.984375 C 6.835938 -4.671875 7.035156 -4.242188 7.109375 -3.703125 C 7.179688 -3.171875 7.109375 -2.675781 6.890625 -2.21875 C 6.671875 -1.769531 6.328125 -1.382812 5.859375 -1.0625 C 5.398438 -0.738281 4.828125 -0.53125 4.140625 -0.4375 Z M 4.140625 -0.4375 "/></g></g></g><g fill="#004aad" fill-opacity="1"><g transform="translate(168.867265, 267.41907)"><g><path d="M 6.625 -9.84375 L 6.78125 -8.046875 L 4.359375 -7.828125 L 5 -0.421875 L 2.75 -0.234375 L 2.109375 -7.640625 L -0.328125 -7.4375 L -0.484375 -9.234375 Z M 6.625 -9.84375 "/></g></g></g><g fill="#004aad" fill-opacity="1"><g transform="translate(176.402399, 266.74425)"><g><path d="M 3.9375 -9.390625 C 4.90625 -9.429688 5.757812 -9.269531 6.5 -8.90625 C 7.238281 -8.550781 7.820312 -8.03125 8.25 -7.34375 C 8.6875 -6.664062 8.921875 -5.875 8.953125 -4.96875 C 8.984375 -4.0625 8.8125 -3.25 8.4375 -2.53125 C 8.0625 -1.8125 7.515625 -1.242188 6.796875 -0.828125 C 6.078125 -0.421875 5.238281 -0.195312 4.28125 -0.15625 L 0.8125 -0.03125 L 0.46875 -9.265625 Z M 4.046875 -2.109375 C 4.898438 -2.140625 5.554688 -2.394531 6.015625 -2.875 C 6.472656 -3.363281 6.6875 -4.035156 6.65625 -4.890625 C 6.625 -5.734375 6.359375 -6.378906 5.859375 -6.828125 C 5.367188 -7.285156 4.695312 -7.5 3.84375 -7.46875 L 2.78125 -7.421875 L 2.984375 -2.0625 Z M 4.046875 -2.109375 "/></g></g></g><g fill="#004aad" fill-opacity="1"><g transform="translate(185.81099, 266.442871)"><g/></g></g><g fill="#004aad" fill-opacity="1"><g transform="translate(188.474505, 266.397443)"><g><path d="M 0.5625 -1.78125 C 0.851562 -2.007812 0.988281 -2.117188 0.96875 -2.109375 C 1.84375 -2.804688 2.535156 -3.375 3.046875 -3.8125 C 3.554688 -4.25 3.988281 -4.710938 4.34375 -5.203125 C 4.695312 -5.703125 4.878906 -6.191406 4.890625 -6.671875 C 4.898438 -7.023438 4.820312 -7.300781 4.65625 -7.5 C 4.5 -7.707031 4.253906 -7.816406 3.921875 -7.828125 C 3.585938 -7.835938 3.320312 -7.71875 3.125 -7.46875 C 2.925781 -7.226562 2.820312 -6.878906 2.8125 -6.421875 L 0.640625 -6.46875 C 0.679688 -7.21875 0.859375 -7.835938 1.171875 -8.328125 C 1.484375 -8.828125 1.890625 -9.1875 2.390625 -9.40625 C 2.898438 -9.625 3.457031 -9.726562 4.0625 -9.71875 C 5.101562 -9.695312 5.878906 -9.410156 6.390625 -8.859375 C 6.910156 -8.304688 7.160156 -7.601562 7.140625 -6.75 C 7.117188 -5.8125 6.773438 -4.945312 6.109375 -4.15625 C 5.453125 -3.375 4.617188 -2.609375 3.609375 -1.859375 L 7.171875 -1.78125 L 7.125 0.046875 L 0.515625 -0.109375 Z M 0.5625 -1.78125 "/></g></g></g><g fill="#004aad" fill-opacity="1"><g transform="translate(195.789504, 266.561939)"><g><path d="M 0.9375 -4.875 C 1.039062 -6.382812 1.410156 -7.550781 2.046875 -8.375 C 2.691406 -9.195312 3.65625 -9.5625 4.9375 -9.46875 C 6.238281 -9.375 7.148438 -8.878906 7.671875 -7.984375 C 8.203125 -7.085938 8.414062 -5.882812 8.3125 -4.375 C 8.207031 -2.851562 7.832031 -1.675781 7.1875 -0.84375 C 6.539062 -0.0195312 5.566406 0.34375 4.265625 0.25 C 2.984375 0.15625 2.082031 -0.335938 1.5625 -1.234375 C 1.039062 -2.140625 0.832031 -3.351562 0.9375 -4.875 Z M 6.109375 -4.515625 C 6.171875 -5.398438 6.117188 -6.085938 5.953125 -6.578125 C 5.796875 -7.078125 5.410156 -7.347656 4.796875 -7.390625 C 4.191406 -7.429688 3.78125 -7.21875 3.5625 -6.75 C 3.34375 -6.289062 3.203125 -5.617188 3.140625 -4.734375 C 3.097656 -4.128906 3.097656 -3.632812 3.140625 -3.25 C 3.191406 -2.863281 3.3125 -2.539062 3.5 -2.28125 C 3.6875 -2.019531 3.988281 -1.875 4.40625 -1.84375 C 4.832031 -1.8125 5.160156 -1.910156 5.390625 -2.140625 C 5.628906 -2.367188 5.796875 -2.671875 5.890625 -3.046875 C 5.992188 -3.421875 6.066406 -3.910156 6.109375 -4.515625 Z M 6.109375 -4.515625 "/></g></g></g><g fill="#004aad" fill-opacity="1"><g transform="translate(204.151014, 267.148697)"><g><path d="M 0.71875 -1.71875 C 1.039062 -1.925781 1.1875 -2.019531 1.15625 -2 C 2.082031 -2.625 2.816406 -3.128906 3.359375 -3.515625 C 3.910156 -3.910156 4.382812 -4.335938 4.78125 -4.796875 C 5.175781 -5.253906 5.398438 -5.722656 5.453125 -6.203125 C 5.492188 -6.554688 5.441406 -6.84375 5.296875 -7.0625 C 5.148438 -7.28125 4.910156 -7.410156 4.578125 -7.453125 C 4.253906 -7.492188 3.984375 -7.398438 3.765625 -7.171875 C 3.554688 -6.941406 3.425781 -6.597656 3.375 -6.140625 L 1.21875 -6.375 C 1.320312 -7.125 1.550781 -7.726562 1.90625 -8.1875 C 2.257812 -8.65625 2.695312 -8.976562 3.21875 -9.15625 C 3.738281 -9.332031 4.296875 -9.382812 4.890625 -9.3125 C 5.929688 -9.195312 6.6875 -8.84375 7.15625 -8.25 C 7.625 -7.65625 7.804688 -6.929688 7.703125 -6.078125 C 7.597656 -5.148438 7.179688 -4.320312 6.453125 -3.59375 C 5.734375 -2.875 4.835938 -2.1875 3.765625 -1.53125 L 7.296875 -1.125 L 7.09375 0.6875 L 0.53125 -0.0625 Z M 0.71875 -1.71875 "/></g></g></g><g fill="#004aad" fill-opacity="1"><g transform="translate(211.433587, 267.975803)"><g><path d="M 0.796875 -1.703125 C 1.109375 -1.890625 1.253906 -1.972656 1.234375 -1.953125 C 2.191406 -2.535156 2.953125 -3.007812 3.515625 -3.375 C 4.078125 -3.738281 4.5625 -4.140625 4.96875 -4.578125 C 5.382812 -5.023438 5.628906 -5.488281 5.703125 -5.96875 C 5.753906 -6.3125 5.710938 -6.597656 5.578125 -6.828125 C 5.453125 -7.054688 5.222656 -7.195312 4.890625 -7.25 C 4.566406 -7.300781 4.289062 -7.21875 4.0625 -7 C 3.84375 -6.78125 3.695312 -6.445312 3.625 -6 L 1.484375 -6.328125 C 1.617188 -7.066406 1.875 -7.660156 2.25 -8.109375 C 2.625 -8.554688 3.070312 -8.851562 3.59375 -9 C 4.125 -9.15625 4.6875 -9.1875 5.28125 -9.09375 C 6.3125 -8.9375 7.046875 -8.550781 7.484375 -7.9375 C 7.929688 -7.332031 8.085938 -6.609375 7.953125 -5.765625 C 7.816406 -4.835938 7.367188 -4.023438 6.609375 -3.328125 C 5.847656 -2.640625 4.914062 -1.988281 3.8125 -1.375 L 7.34375 -0.828125 L 7.0625 0.96875 L 0.53125 -0.046875 Z M 0.796875 -1.703125 "/></g></g></g><g fill="#004aad" fill-opacity="1"><g transform="translate(218.726204, 269.147659)"><g/></g></g></svg>